<svg xmlns="http://www.w3.org/2000/svg" viewBox="0 0 810 324" width="100%">
<rect width="810" height="324" fill="#faf8f4"/>
<g font-family="Georgia, serif" fill="#6b6560">
<text x="165.0" y="36" font-size="10.5" text-anchor="middle" letter-spacing="1.2">une seule date (mai)</text>
<g transform="translate(70.3,76.1) scale(1.000)"><line x1="36.1" y1="205.0" x2="36.1" y2="93.9" stroke="#2c3230" stroke-width="3.54" stroke-linecap="round"/><line x1="77.9" y1="205.0" x2="77.9" y2="93.9" stroke="#2c3230" stroke-width="3.54" stroke-linecap="round"/><line x1="36.1" y1="93.9" x2="77.9" y2="93.9" stroke="#2c3230" stroke-width="3.54" stroke-linecap="round"/><line x1="36.1" y1="205.0" x2="77.9" y2="205.0" stroke="#2c3230" stroke-width="3.54" stroke-linecap="round"/><line x1="36.1" y1="192.7" x2="77.9" y2="192.7" stroke="#7fa85e" stroke-width="2.52" stroke-linecap="round"/><line x1="36.1" y1="180.3" x2="77.9" y2="180.3" stroke="#7fa85e" stroke-width="2.52" stroke-linecap="round"/><line x1="36.1" y1="168.0" x2="77.9" y2="168.0" stroke="#7fa85e" stroke-width="2.52" stroke-linecap="round"/><line x1="36.1" y1="155.6" x2="77.9" y2="155.6" stroke="#7fa85e" stroke-width="2.52" stroke-linecap="round"/><line x1="36.1" y1="143.3" x2="77.9" y2="143.3" stroke="#7fa85e" stroke-width="2.52" stroke-linecap="round"/><line x1="36.1" y1="130.9" x2="77.9" y2="130.9" stroke="#7fa85e" stroke-width="2.52" stroke-linecap="round"/><line x1="36.1" y1="118.6" x2="77.9" y2="118.6" stroke="#7fa85e" stroke-width="2.52" stroke-linecap="round"/><line x1="36.1" y1="106.2" x2="77.9" y2="106.2" stroke="#7fa85e" stroke-width="2.52" stroke-linecap="round"/><line x1="50.0" y1="205.0" x2="50.0" y2="93.9" stroke="#7fa85e" stroke-width="2.32" stroke-linecap="round"/><line x1="64.0" y1="205.0" x2="64.0" y2="93.9" stroke="#7fa85e" stroke-width="2.32" stroke-linecap="round"/><line x1="57.0" y1="93.9" x2="57.0" y2="67.9" stroke="#2c3230" stroke-width="3.13" stroke-linecap="round"/><line x1="128.5" y1="199.3" x2="128.5" y2="93.4" stroke="#2c3230" stroke-width="3.54" stroke-linecap="round"/><line x1="159.2" y1="199.3" x2="159.2" y2="93.4" stroke="#2c3230" stroke-width="3.54" stroke-linecap="round"/><line x1="128.5" y1="93.4" x2="159.2" y2="93.4" stroke="#2c3230" stroke-width="3.54" stroke-linecap="round"/><line x1="128.5" y1="199.3" x2="159.2" y2="199.3" stroke="#2c3230" stroke-width="3.54" stroke-linecap="round"/><line x1="128.5" y1="187.5" x2="159.2" y2="187.5" stroke="#4f7a3f" stroke-width="2.52" stroke-linecap="round"/><line x1="128.5" y1="175.8" x2="159.2" y2="175.8" stroke="#4f7a3f" stroke-width="2.52" stroke-linecap="round"/><line x1="128.5" y1="164.0" x2="159.2" y2="164.0" stroke="#4f7a3f" stroke-width="2.52" stroke-linecap="round"/><line x1="128.5" y1="152.2" x2="159.2" y2="152.2" stroke="#4f7a3f" stroke-width="2.52" stroke-linecap="round"/><line x1="128.5" y1="140.5" x2="159.2" y2="140.5" stroke="#4f7a3f" stroke-width="2.52" stroke-linecap="round"/><line x1="128.5" y1="128.7" x2="159.2" y2="128.7" stroke="#4f7a3f" stroke-width="2.52" stroke-linecap="round"/><line x1="128.5" y1="116.9" x2="159.2" y2="116.9" stroke="#4f7a3f" stroke-width="2.52" stroke-linecap="round"/><line x1="128.5" y1="105.2" x2="159.2" y2="105.2" stroke="#4f7a3f" stroke-width="2.52" stroke-linecap="round"/><line x1="143.8" y1="199.3" x2="143.8" y2="93.4" stroke="#4f7a3f" stroke-width="2.32" stroke-linecap="round"/><line x1="96.1" y1="193.6" x2="96.1" y2="78.5" stroke="#2c3230" stroke-width="3.54" stroke-linecap="round"/><line x1="135.3" y1="193.6" x2="135.3" y2="78.5" stroke="#2c3230" stroke-width="3.54" stroke-linecap="round"/><line x1="96.1" y1="78.5" x2="135.3" y2="78.5" stroke="#2c3230" stroke-width="3.54" stroke-linecap="round"/><line x1="96.1" y1="193.6" x2="135.3" y2="193.6" stroke="#2c3230" stroke-width="3.54" stroke-linecap="round"/><line x1="96.1" y1="180.8" x2="135.3" y2="180.8" stroke="#7fa85e" stroke-width="2.52" stroke-linecap="round"/><line x1="96.1" y1="168.0" x2="135.3" y2="168.0" stroke="#7fa85e" stroke-width="2.52" stroke-linecap="round"/><line x1="96.1" y1="155.2" x2="135.3" y2="155.2" stroke="#7fa85e" stroke-width="2.52" stroke-linecap="round"/><line x1="96.1" y1="142.4" x2="135.3" y2="142.4" stroke="#7fa85e" stroke-width="2.52" stroke-linecap="round"/><line x1="96.1" y1="129.6" x2="135.3" y2="129.6" stroke="#7fa85e" stroke-width="2.52" stroke-linecap="round"/><line x1="96.1" y1="116.8" x2="135.3" y2="116.8" stroke="#7fa85e" stroke-width="2.52" stroke-linecap="round"/><line x1="96.1" y1="104.0" x2="135.3" y2="104.0" stroke="#7fa85e" stroke-width="2.52" stroke-linecap="round"/><line x1="96.1" y1="91.3" x2="135.3" y2="91.3" stroke="#7fa85e" stroke-width="2.52" stroke-linecap="round"/><line x1="109.2" y1="193.6" x2="109.2" y2="78.5" stroke="#7fa85e" stroke-width="2.32" stroke-linecap="round"/><line x1="122.2" y1="193.6" x2="122.2" y2="78.5" stroke="#7fa85e" stroke-width="2.32" stroke-linecap="round"/><line x1="115.7" y1="78.5" x2="115.7" y2="59.1" stroke="#2c3230" stroke-width="3.13" stroke-linecap="round"/><line x1="63.3" y1="187.8" x2="63.3" y2="40.4" stroke="#2c3230" stroke-width="3.54" stroke-linecap="round"/><line x1="94.8" y1="187.8" x2="94.8" y2="40.4" stroke="#2c3230" stroke-width="3.54" stroke-linecap="round"/><line x1="63.3" y1="40.4" x2="94.8" y2="40.4" stroke="#2c3230" stroke-width="3.54" stroke-linecap="round"/><line x1="63.3" y1="187.8" x2="94.8" y2="187.8" stroke="#2c3230" stroke-width="3.54" stroke-linecap="round"/><line x1="63.3" y1="175.5" x2="94.8" y2="175.5" stroke="#96b56a" stroke-width="2.52" stroke-linecap="round"/><line x1="63.3" y1="163.3" x2="94.8" y2="163.3" stroke="#96b56a" stroke-width="2.52" stroke-linecap="round"/><line x1="63.3" y1="151.0" x2="94.8" y2="151.0" stroke="#96b56a" stroke-width="2.52" stroke-linecap="round"/><line x1="63.3" y1="138.7" x2="94.8" y2="138.7" stroke="#96b56a" stroke-width="2.52" stroke-linecap="round"/><line x1="63.3" y1="126.4" x2="94.8" y2="126.4" stroke="#96b56a" stroke-width="2.52" stroke-linecap="round"/><line x1="63.3" y1="114.1" x2="94.8" y2="114.1" stroke="#96b56a" stroke-width="2.52" stroke-linecap="round"/><line x1="63.3" y1="101.8" x2="94.8" y2="101.8" stroke="#96b56a" stroke-width="2.52" stroke-linecap="round"/><line x1="63.3" y1="89.5" x2="94.8" y2="89.5" stroke="#96b56a" stroke-width="2.52" stroke-linecap="round"/><line x1="63.3" y1="77.2" x2="94.8" y2="77.2" stroke="#96b56a" stroke-width="2.52" stroke-linecap="round"/><line x1="63.3" y1="64.9" x2="94.8" y2="64.9" stroke="#96b56a" stroke-width="2.52" stroke-linecap="round"/><line x1="63.3" y1="52.6" x2="94.8" y2="52.6" stroke="#96b56a" stroke-width="2.52" stroke-linecap="round"/><line x1="79.1" y1="187.8" x2="79.1" y2="40.4" stroke="#96b56a" stroke-width="2.32" stroke-linecap="round"/><line x1="79.1" y1="40.4" x2="79.1" y2="20.9" stroke="#2c3230" stroke-width="3.13" stroke-linecap="round"/><line x1="7.3" y1="182.1" x2="7.3" y2="55.1" stroke="#2c3230" stroke-width="3.54" stroke-linecap="round"/><line x1="51.2" y1="182.1" x2="51.2" y2="55.1" stroke="#2c3230" stroke-width="3.54" stroke-linecap="round"/><line x1="7.3" y1="55.1" x2="51.2" y2="55.1" stroke="#2c3230" stroke-width="3.54" stroke-linecap="round"/><line x1="7.3" y1="182.1" x2="51.2" y2="182.1" stroke="#2c3230" stroke-width="3.54" stroke-linecap="round"/><line x1="7.3" y1="170.6" x2="51.2" y2="170.6" stroke="#4f7a3f" stroke-width="2.52" stroke-linecap="round"/><line x1="7.3" y1="159.0" x2="51.2" y2="159.0" stroke="#4f7a3f" stroke-width="2.52" stroke-linecap="round"/><line x1="7.3" y1="147.5" x2="51.2" y2="147.5" stroke="#4f7a3f" stroke-width="2.52" stroke-linecap="round"/><line x1="7.3" y1="135.9" x2="51.2" y2="135.9" stroke="#4f7a3f" stroke-width="2.52" stroke-linecap="round"/><line x1="7.3" y1="124.4" x2="51.2" y2="124.4" stroke="#4f7a3f" stroke-width="2.52" stroke-linecap="round"/><line x1="7.3" y1="112.9" x2="51.2" y2="112.9" stroke="#4f7a3f" stroke-width="2.52" stroke-linecap="round"/><line x1="7.3" y1="101.3" x2="51.2" y2="101.3" stroke="#4f7a3f" stroke-width="2.52" stroke-linecap="round"/><line x1="7.3" y1="89.8" x2="51.2" y2="89.8" stroke="#4f7a3f" stroke-width="2.52" stroke-linecap="round"/><line x1="7.3" y1="78.2" x2="51.2" y2="78.2" stroke="#4f7a3f" stroke-width="2.52" stroke-linecap="round"/><line x1="7.3" y1="66.7" x2="51.2" y2="66.7" stroke="#4f7a3f" stroke-width="2.52" stroke-linecap="round"/><line x1="18.3" y1="182.1" x2="18.3" y2="55.1" stroke="#4f7a3f" stroke-width="2.32" stroke-linecap="round"/><line x1="29.3" y1="182.1" x2="29.3" y2="55.1" stroke="#4f7a3f" stroke-width="2.32" stroke-linecap="round"/><line x1="40.2" y1="182.1" x2="40.2" y2="55.1" stroke="#4f7a3f" stroke-width="2.32" stroke-linecap="round"/><line x1="18.0" y1="205.0" x2="182.0" y2="205.0" stroke="#2c3230" stroke-width="3.54" stroke-linecap="round"/><circle cx="36.1" cy="93.9" r="2.44" fill="#7fa85e" opacity="0.75"/><circle cx="77.9" cy="93.9" r="2.44" fill="#7fa85e" opacity="0.75"/><circle cx="128.5" cy="93.4" r="2.44" fill="#4f7a3f" opacity="0.75"/><circle cx="159.2" cy="93.4" r="2.44" fill="#4f7a3f" opacity="0.75"/><circle cx="96.1" cy="78.5" r="2.44" fill="#7fa85e" opacity="0.75"/><circle cx="135.3" cy="78.5" r="2.44" fill="#7fa85e" opacity="0.75"/><circle cx="63.3" cy="40.4" r="2.44" fill="#96b56a" opacity="0.75"/><circle cx="94.8" cy="40.4" r="2.44" fill="#96b56a" opacity="0.75"/><circle cx="7.3" cy="55.1" r="2.44" fill="#4f7a3f" opacity="0.75"/><circle cx="51.2" cy="55.1" r="2.44" fill="#4f7a3f" opacity="0.75"/></g>
<text x="415.0" y="36" font-size="10.5" text-anchor="middle" letter-spacing="1.2">dates inventees (v4 : jour + rang x 47)</text>
<g transform="translate(324.4,92.5) scale(0.969)"><line x1="36.1" y1="205.0" x2="36.1" y2="93.9" stroke="#2c3230" stroke-width="3.66" stroke-linecap="round"/><line x1="77.9" y1="205.0" x2="77.9" y2="93.9" stroke="#2c3230" stroke-width="3.66" stroke-linecap="round"/><line x1="36.1" y1="93.9" x2="77.9" y2="93.9" stroke="#2c3230" stroke-width="3.66" stroke-linecap="round"/><line x1="36.1" y1="205.0" x2="77.9" y2="205.0" stroke="#2c3230" stroke-width="3.66" stroke-linecap="round"/><line x1="36.1" y1="192.7" x2="77.9" y2="192.7" stroke="#b7723f" stroke-width="2.60" stroke-linecap="round"/><line x1="36.1" y1="180.3" x2="77.9" y2="180.3" stroke="#b7723f" stroke-width="2.60" stroke-linecap="round"/><line x1="36.1" y1="168.0" x2="77.9" y2="168.0" stroke="#b7723f" stroke-width="2.60" stroke-linecap="round"/><line x1="36.1" y1="155.6" x2="77.9" y2="155.6" stroke="#b7723f" stroke-width="2.60" stroke-linecap="round"/><line x1="36.1" y1="143.3" x2="77.9" y2="143.3" stroke="#b7723f" stroke-width="2.60" stroke-linecap="round"/><line x1="36.1" y1="130.9" x2="77.9" y2="130.9" stroke="#b7723f" stroke-width="2.60" stroke-linecap="round"/><line x1="36.1" y1="118.6" x2="77.9" y2="118.6" stroke="#b7723f" stroke-width="2.60" stroke-linecap="round"/><line x1="36.1" y1="106.2" x2="77.9" y2="106.2" stroke="#b7723f" stroke-width="2.60" stroke-linecap="round"/><line x1="50.0" y1="205.0" x2="50.0" y2="93.9" stroke="#b7723f" stroke-width="2.39" stroke-linecap="round"/><line x1="64.0" y1="205.0" x2="64.0" y2="93.9" stroke="#b7723f" stroke-width="2.39" stroke-linecap="round"/><line x1="57.0" y1="93.9" x2="57.0" y2="67.9" stroke="#2c3230" stroke-width="3.23" stroke-linecap="round"/><line x1="128.5" y1="199.3" x2="128.5" y2="93.4" stroke="#2c3230" stroke-width="3.66" stroke-linecap="round"/><line x1="159.2" y1="199.3" x2="159.2" y2="93.4" stroke="#2c3230" stroke-width="3.66" stroke-linecap="round"/><line x1="128.5" y1="93.4" x2="159.2" y2="93.4" stroke="#2c3230" stroke-width="3.66" stroke-linecap="round"/><line x1="128.5" y1="199.3" x2="159.2" y2="199.3" stroke="#2c3230" stroke-width="3.66" stroke-linecap="round"/><line x1="128.5" y1="187.5" x2="159.2" y2="187.5" stroke="#894b25" stroke-width="2.60" stroke-linecap="round"/><line x1="128.5" y1="175.8" x2="159.2" y2="175.8" stroke="#894b25" stroke-width="2.60" stroke-linecap="round"/><line x1="128.5" y1="164.0" x2="159.2" y2="164.0" stroke="#894b25" stroke-width="2.60" stroke-linecap="round"/><line x1="128.5" y1="152.2" x2="159.2" y2="152.2" stroke="#894b25" stroke-width="2.60" stroke-linecap="round"/><line x1="128.5" y1="140.5" x2="159.2" y2="140.5" stroke="#894b25" stroke-width="2.60" stroke-linecap="round"/><line x1="128.5" y1="128.7" x2="159.2" y2="128.7" stroke="#894b25" stroke-width="2.60" stroke-linecap="round"/><line x1="128.5" y1="116.9" x2="159.2" y2="116.9" stroke="#894b25" stroke-width="2.60" stroke-linecap="round"/><line x1="128.5" y1="105.2" x2="159.2" y2="105.2" stroke="#894b25" stroke-width="2.60" stroke-linecap="round"/><line x1="143.8" y1="199.3" x2="143.8" y2="93.4" stroke="#894b25" stroke-width="2.39" stroke-linecap="round"/><line x1="96.1" y1="193.6" x2="96.1" y2="78.5" stroke="#2c3230" stroke-width="3.66" stroke-linecap="round"/><line x1="135.3" y1="193.6" x2="135.3" y2="78.5" stroke="#2c3230" stroke-width="3.66" stroke-linecap="round"/><line x1="96.1" y1="78.5" x2="135.3" y2="78.5" stroke="#2c3230" stroke-width="3.66" stroke-linecap="round"/><line x1="96.1" y1="193.6" x2="135.3" y2="193.6" stroke="#2c3230" stroke-width="3.66" stroke-linecap="round"/><line x1="96.1" y1="180.8" x2="135.3" y2="180.8" stroke="#7fa85e" stroke-width="2.60" stroke-linecap="round"/><line x1="96.1" y1="168.0" x2="135.3" y2="168.0" stroke="#7fa85e" stroke-width="2.60" stroke-linecap="round"/><line x1="96.1" y1="155.2" x2="135.3" y2="155.2" stroke="#7fa85e" stroke-width="2.60" stroke-linecap="round"/><line x1="96.1" y1="142.4" x2="135.3" y2="142.4" stroke="#7fa85e" stroke-width="2.60" stroke-linecap="round"/><line x1="96.1" y1="129.6" x2="135.3" y2="129.6" stroke="#7fa85e" stroke-width="2.60" stroke-linecap="round"/><line x1="96.1" y1="116.8" x2="135.3" y2="116.8" stroke="#7fa85e" stroke-width="2.60" stroke-linecap="round"/><line x1="96.1" y1="104.0" x2="135.3" y2="104.0" stroke="#7fa85e" stroke-width="2.60" stroke-linecap="round"/><line x1="96.1" y1="91.3" x2="135.3" y2="91.3" stroke="#7fa85e" stroke-width="2.60" stroke-linecap="round"/><line x1="109.2" y1="193.6" x2="109.2" y2="78.5" stroke="#7fa85e" stroke-width="2.39" stroke-linecap="round"/><line x1="122.2" y1="193.6" x2="122.2" y2="78.5" stroke="#7fa85e" stroke-width="2.39" stroke-linecap="round"/><line x1="115.7" y1="78.5" x2="115.7" y2="59.1" stroke="#2c3230" stroke-width="3.23" stroke-linecap="round"/><line x1="67.5" y1="187.8" x2="67.5" y2="31.9" stroke="#2c3230" stroke-width="3.66" stroke-linecap="round"/><line x1="105.6" y1="187.8" x2="105.6" y2="31.9" stroke="#2c3230" stroke-width="3.66" stroke-linecap="round"/><line x1="67.5" y1="31.9" x2="105.6" y2="31.9" stroke="#2c3230" stroke-width="3.66" stroke-linecap="round"/><line x1="67.5" y1="187.8" x2="105.6" y2="187.8" stroke="#2c3230" stroke-width="3.66" stroke-linecap="round"/><line x1="67.5" y1="175.8" x2="105.6" y2="175.8" stroke="#7d3d22" stroke-width="2.60" stroke-linecap="round"/><line x1="67.5" y1="163.8" x2="105.6" y2="163.8" stroke="#7d3d22" stroke-width="2.60" stroke-linecap="round"/><line x1="67.5" y1="151.9" x2="105.6" y2="151.9" stroke="#7d3d22" stroke-width="2.60" stroke-linecap="round"/><line x1="67.5" y1="139.9" x2="105.6" y2="139.9" stroke="#7d3d22" stroke-width="2.60" stroke-linecap="round"/><line x1="67.5" y1="127.9" x2="105.6" y2="127.9" stroke="#7d3d22" stroke-width="2.60" stroke-linecap="round"/><line x1="67.5" y1="115.9" x2="105.6" y2="115.9" stroke="#7d3d22" stroke-width="2.60" stroke-linecap="round"/><line x1="67.5" y1="103.9" x2="105.6" y2="103.9" stroke="#7d3d22" stroke-width="2.60" stroke-linecap="round"/><line x1="67.5" y1="91.9" x2="105.6" y2="91.9" stroke="#7d3d22" stroke-width="2.60" stroke-linecap="round"/><line x1="67.5" y1="79.9" x2="105.6" y2="79.9" stroke="#7d3d22" stroke-width="2.60" stroke-linecap="round"/><line x1="67.5" y1="67.9" x2="105.6" y2="67.9" stroke="#7d3d22" stroke-width="2.60" stroke-linecap="round"/><line x1="67.5" y1="55.9" x2="105.6" y2="55.9" stroke="#7d3d22" stroke-width="2.60" stroke-linecap="round"/><line x1="67.5" y1="43.9" x2="105.6" y2="43.9" stroke="#7d3d22" stroke-width="2.60" stroke-linecap="round"/><line x1="80.2" y1="187.8" x2="80.2" y2="31.9" stroke="#7d3d22" stroke-width="2.39" stroke-linecap="round"/><line x1="92.9" y1="187.8" x2="92.9" y2="31.9" stroke="#7d3d22" stroke-width="2.39" stroke-linecap="round"/><line x1="86.6" y1="31.9" x2="86.6" y2="21.5" stroke="#2c3230" stroke-width="3.23" stroke-linecap="round"/><line x1="5.1" y1="182.1" x2="5.1" y2="6.3" stroke="#2c3230" stroke-width="3.66" stroke-linecap="round"/><line x1="35.3" y1="182.1" x2="35.3" y2="6.3" stroke="#2c3230" stroke-width="3.66" stroke-linecap="round"/><line x1="5.1" y1="6.3" x2="35.3" y2="6.3" stroke="#2c3230" stroke-width="3.66" stroke-linecap="round"/><line x1="5.1" y1="182.1" x2="35.3" y2="182.1" stroke="#2c3230" stroke-width="3.66" stroke-linecap="round"/><line x1="5.1" y1="170.4" x2="35.3" y2="170.4" stroke="#ada354" stroke-width="2.60" stroke-linecap="round"/><line x1="5.1" y1="158.7" x2="35.3" y2="158.7" stroke="#ada354" stroke-width="2.60" stroke-linecap="round"/><line x1="5.1" y1="147.0" x2="35.3" y2="147.0" stroke="#ada354" stroke-width="2.60" stroke-linecap="round"/><line x1="5.1" y1="135.2" x2="35.3" y2="135.2" stroke="#ada354" stroke-width="2.60" stroke-linecap="round"/><line x1="5.1" y1="123.5" x2="35.3" y2="123.5" stroke="#ada354" stroke-width="2.60" stroke-linecap="round"/><line x1="5.1" y1="111.8" x2="35.3" y2="111.8" stroke="#ada354" stroke-width="2.60" stroke-linecap="round"/><line x1="5.1" y1="100.1" x2="35.3" y2="100.1" stroke="#ada354" stroke-width="2.60" stroke-linecap="round"/><line x1="5.1" y1="88.4" x2="35.3" y2="88.4" stroke="#ada354" stroke-width="2.60" stroke-linecap="round"/><line x1="5.1" y1="76.6" x2="35.3" y2="76.6" stroke="#ada354" stroke-width="2.60" stroke-linecap="round"/><line x1="5.1" y1="64.9" x2="35.3" y2="64.9" stroke="#ada354" stroke-width="2.60" stroke-linecap="round"/><line x1="5.1" y1="53.2" x2="35.3" y2="53.2" stroke="#ada354" stroke-width="2.60" stroke-linecap="round"/><line x1="5.1" y1="41.5" x2="35.3" y2="41.5" stroke="#ada354" stroke-width="2.60" stroke-linecap="round"/><line x1="5.1" y1="29.7" x2="35.3" y2="29.7" stroke="#ada354" stroke-width="2.60" stroke-linecap="round"/><line x1="5.1" y1="18.0" x2="35.3" y2="18.0" stroke="#ada354" stroke-width="2.60" stroke-linecap="round"/><line x1="20.2" y1="182.1" x2="20.2" y2="6.3" stroke="#ada354" stroke-width="2.39" stroke-linecap="round"/><line x1="20.2" y1="6.3" x2="20.2" y2="-5.6" stroke="#2c3230" stroke-width="3.23" stroke-linecap="round"/><line x1="18.0" y1="205.0" x2="182.0" y2="205.0" stroke="#2c3230" stroke-width="3.66" stroke-linecap="round"/><circle cx="36.1" cy="93.9" r="2.52" fill="#b7723f" opacity="0.75"/><circle cx="77.9" cy="93.9" r="2.52" fill="#b7723f" opacity="0.75"/><circle cx="128.5" cy="93.4" r="2.52" fill="#894b25" opacity="0.75"/><circle cx="159.2" cy="93.4" r="2.52" fill="#894b25" opacity="0.75"/><circle cx="96.1" cy="78.5" r="2.52" fill="#7fa85e" opacity="0.75"/><circle cx="135.3" cy="78.5" r="2.52" fill="#7fa85e" opacity="0.75"/><circle cx="67.5" cy="31.9" r="2.52" fill="#7d3d22" opacity="0.75"/><circle cx="105.6" cy="31.9" r="2.52" fill="#7d3d22" opacity="0.75"/><circle cx="5.1" cy="6.3" r="2.52" fill="#ada354" opacity="0.75"/><circle cx="35.3" cy="6.3" r="2.52" fill="#ada354" opacity="0.75"/></g>
<text x="665.0" y="36" font-size="10.5" text-anchor="middle" letter-spacing="1.2">vraies dates : fevrier -> mai</text>
<g transform="translate(570.3,76.1) scale(1.000)"><line x1="36.1" y1="205.0" x2="36.1" y2="93.9" stroke="#2c3230" stroke-width="3.54" stroke-linecap="round"/><line x1="77.9" y1="205.0" x2="77.9" y2="93.9" stroke="#2c3230" stroke-width="3.54" stroke-linecap="round"/><line x1="36.1" y1="93.9" x2="77.9" y2="93.9" stroke="#2c3230" stroke-width="3.54" stroke-linecap="round"/><line x1="36.1" y1="205.0" x2="77.9" y2="205.0" stroke="#2c3230" stroke-width="3.54" stroke-linecap="round"/><line x1="36.1" y1="192.7" x2="77.9" y2="192.7" stroke="#7fa85e" stroke-width="2.52" stroke-linecap="round"/><line x1="36.1" y1="180.3" x2="77.9" y2="180.3" stroke="#7fa85e" stroke-width="2.52" stroke-linecap="round"/><line x1="36.1" y1="168.0" x2="77.9" y2="168.0" stroke="#7fa85e" stroke-width="2.52" stroke-linecap="round"/><line x1="36.1" y1="155.6" x2="77.9" y2="155.6" stroke="#7fa85e" stroke-width="2.52" stroke-linecap="round"/><line x1="36.1" y1="143.3" x2="77.9" y2="143.3" stroke="#7fa85e" stroke-width="2.52" stroke-linecap="round"/><line x1="36.1" y1="130.9" x2="77.9" y2="130.9" stroke="#7fa85e" stroke-width="2.52" stroke-linecap="round"/><line x1="36.1" y1="118.6" x2="77.9" y2="118.6" stroke="#7fa85e" stroke-width="2.52" stroke-linecap="round"/><line x1="36.1" y1="106.2" x2="77.9" y2="106.2" stroke="#7fa85e" stroke-width="2.52" stroke-linecap="round"/><line x1="50.0" y1="205.0" x2="50.0" y2="93.9" stroke="#7fa85e" stroke-width="2.32" stroke-linecap="round"/><line x1="64.0" y1="205.0" x2="64.0" y2="93.9" stroke="#7fa85e" stroke-width="2.32" stroke-linecap="round"/><line x1="57.0" y1="93.9" x2="57.0" y2="67.9" stroke="#2c3230" stroke-width="3.13" stroke-linecap="round"/><line x1="128.5" y1="199.3" x2="128.5" y2="93.4" stroke="#2c3230" stroke-width="3.54" stroke-linecap="round"/><line x1="159.2" y1="199.3" x2="159.2" y2="93.4" stroke="#2c3230" stroke-width="3.54" stroke-linecap="round"/><line x1="128.5" y1="93.4" x2="159.2" y2="93.4" stroke="#2c3230" stroke-width="3.54" stroke-linecap="round"/><line x1="128.5" y1="199.3" x2="159.2" y2="199.3" stroke="#2c3230" stroke-width="3.54" stroke-linecap="round"/><line x1="128.5" y1="187.5" x2="159.2" y2="187.5" stroke="#4f7a3f" stroke-width="2.52" stroke-linecap="round"/><line x1="128.5" y1="175.8" x2="159.2" y2="175.8" stroke="#4f7a3f" stroke-width="2.52" stroke-linecap="round"/><line x1="128.5" y1="164.0" x2="159.2" y2="164.0" stroke="#4f7a3f" stroke-width="2.52" stroke-linecap="round"/><line x1="128.5" y1="152.2" x2="159.2" y2="152.2" stroke="#4f7a3f" stroke-width="2.52" stroke-linecap="round"/><line x1="128.5" y1="140.5" x2="159.2" y2="140.5" stroke="#4f7a3f" stroke-width="2.52" stroke-linecap="round"/><line x1="128.5" y1="128.7" x2="159.2" y2="128.7" stroke="#4f7a3f" stroke-width="2.52" stroke-linecap="round"/><line x1="128.5" y1="116.9" x2="159.2" y2="116.9" stroke="#4f7a3f" stroke-width="2.52" stroke-linecap="round"/><line x1="128.5" y1="105.2" x2="159.2" y2="105.2" stroke="#4f7a3f" stroke-width="2.52" stroke-linecap="round"/><line x1="143.8" y1="199.3" x2="143.8" y2="93.4" stroke="#4f7a3f" stroke-width="2.32" stroke-linecap="round"/><line x1="96.1" y1="193.6" x2="96.1" y2="78.5" stroke="#2c3230" stroke-width="3.54" stroke-linecap="round"/><line x1="135.3" y1="193.6" x2="135.3" y2="78.5" stroke="#2c3230" stroke-width="3.54" stroke-linecap="round"/><line x1="96.1" y1="78.5" x2="135.3" y2="78.5" stroke="#2c3230" stroke-width="3.54" stroke-linecap="round"/><line x1="96.1" y1="193.6" x2="135.3" y2="193.6" stroke="#2c3230" stroke-width="3.54" stroke-linecap="round"/><line x1="96.1" y1="180.8" x2="135.3" y2="180.8" stroke="#6e8fa0" stroke-width="2.52" stroke-linecap="round"/><line x1="96.1" y1="168.0" x2="135.3" y2="168.0" stroke="#6e8fa0" stroke-width="2.52" stroke-linecap="round"/><line x1="96.1" y1="155.2" x2="135.3" y2="155.2" stroke="#6e8fa0" stroke-width="2.52" stroke-linecap="round"/><line x1="96.1" y1="142.4" x2="135.3" y2="142.4" stroke="#6e8fa0" stroke-width="2.52" stroke-linecap="round"/><line x1="96.1" y1="129.6" x2="135.3" y2="129.6" stroke="#6e8fa0" stroke-width="2.52" stroke-linecap="round"/><line x1="96.1" y1="116.8" x2="135.3" y2="116.8" stroke="#6e8fa0" stroke-width="2.52" stroke-linecap="round"/><line x1="96.1" y1="104.0" x2="135.3" y2="104.0" stroke="#6e8fa0" stroke-width="2.52" stroke-linecap="round"/><line x1="96.1" y1="91.3" x2="135.3" y2="91.3" stroke="#6e8fa0" stroke-width="2.52" stroke-linecap="round"/><line x1="109.2" y1="193.6" x2="109.2" y2="78.5" stroke="#6e8fa0" stroke-width="2.32" stroke-linecap="round"/><line x1="122.2" y1="193.6" x2="122.2" y2="78.5" stroke="#6e8fa0" stroke-width="2.32" stroke-linecap="round"/><line x1="115.7" y1="78.5" x2="115.7" y2="59.1" stroke="#2c3230" stroke-width="3.13" stroke-linecap="round"/><line x1="63.3" y1="187.8" x2="63.3" y2="40.4" stroke="#2c3230" stroke-width="3.54" stroke-linecap="round"/><line x1="94.8" y1="187.8" x2="94.8" y2="40.4" stroke="#2c3230" stroke-width="3.54" stroke-linecap="round"/><line x1="63.3" y1="40.4" x2="94.8" y2="40.4" stroke="#2c3230" stroke-width="3.54" stroke-linecap="round"/><line x1="63.3" y1="187.8" x2="94.8" y2="187.8" stroke="#2c3230" stroke-width="3.54" stroke-linecap="round"/><line x1="63.3" y1="175.5" x2="94.8" y2="175.5" stroke="#90ab8e" stroke-width="2.52" stroke-linecap="round"/><line x1="63.3" y1="163.3" x2="94.8" y2="163.3" stroke="#90ab8e" stroke-width="2.52" stroke-linecap="round"/><line x1="63.3" y1="151.0" x2="94.8" y2="151.0" stroke="#90ab8e" stroke-width="2.52" stroke-linecap="round"/><line x1="63.3" y1="138.7" x2="94.8" y2="138.7" stroke="#90ab8e" stroke-width="2.52" stroke-linecap="round"/><line x1="63.3" y1="126.4" x2="94.8" y2="126.4" stroke="#90ab8e" stroke-width="2.52" stroke-linecap="round"/><line x1="63.3" y1="114.1" x2="94.8" y2="114.1" stroke="#90ab8e" stroke-width="2.52" stroke-linecap="round"/><line x1="63.3" y1="101.8" x2="94.8" y2="101.8" stroke="#90ab8e" stroke-width="2.52" stroke-linecap="round"/><line x1="63.3" y1="89.5" x2="94.8" y2="89.5" stroke="#90ab8e" stroke-width="2.52" stroke-linecap="round"/><line x1="63.3" y1="77.2" x2="94.8" y2="77.2" stroke="#90ab8e" stroke-width="2.52" stroke-linecap="round"/><line x1="63.3" y1="64.9" x2="94.8" y2="64.9" stroke="#90ab8e" stroke-width="2.52" stroke-linecap="round"/><line x1="63.3" y1="52.6" x2="94.8" y2="52.6" stroke="#90ab8e" stroke-width="2.52" stroke-linecap="round"/><line x1="79.1" y1="187.8" x2="79.1" y2="40.4" stroke="#90ab8e" stroke-width="2.32" stroke-linecap="round"/><line x1="79.1" y1="40.4" x2="79.1" y2="20.9" stroke="#2c3230" stroke-width="3.13" stroke-linecap="round"/><line x1="7.3" y1="182.1" x2="7.3" y2="55.1" stroke="#2c3230" stroke-width="3.54" stroke-linecap="round"/><line x1="51.2" y1="182.1" x2="51.2" y2="55.1" stroke="#2c3230" stroke-width="3.54" stroke-linecap="round"/><line x1="7.3" y1="55.1" x2="51.2" y2="55.1" stroke="#2c3230" stroke-width="3.54" stroke-linecap="round"/><line x1="7.3" y1="182.1" x2="51.2" y2="182.1" stroke="#2c3230" stroke-width="3.54" stroke-linecap="round"/><line x1="7.3" y1="170.6" x2="51.2" y2="170.6" stroke="#43596b" stroke-width="2.52" stroke-linecap="round"/><line x1="7.3" y1="159.0" x2="51.2" y2="159.0" stroke="#43596b" stroke-width="2.52" stroke-linecap="round"/><line x1="7.3" y1="147.5" x2="51.2" y2="147.5" stroke="#43596b" stroke-width="2.52" stroke-linecap="round"/><line x1="7.3" y1="135.9" x2="51.2" y2="135.9" stroke="#43596b" stroke-width="2.52" stroke-linecap="round"/><line x1="7.3" y1="124.4" x2="51.2" y2="124.4" stroke="#43596b" stroke-width="2.52" stroke-linecap="round"/><line x1="7.3" y1="112.9" x2="51.2" y2="112.9" stroke="#43596b" stroke-width="2.52" stroke-linecap="round"/><line x1="7.3" y1="101.3" x2="51.2" y2="101.3" stroke="#43596b" stroke-width="2.52" stroke-linecap="round"/><line x1="7.3" y1="89.8" x2="51.2" y2="89.8" stroke="#43596b" stroke-width="2.52" stroke-linecap="round"/><line x1="7.3" y1="78.2" x2="51.2" y2="78.2" stroke="#43596b" stroke-width="2.52" stroke-linecap="round"/><line x1="7.3" y1="66.7" x2="51.2" y2="66.7" stroke="#43596b" stroke-width="2.52" stroke-linecap="round"/><line x1="18.3" y1="182.1" x2="18.3" y2="55.1" stroke="#43596b" stroke-width="2.32" stroke-linecap="round"/><line x1="29.3" y1="182.1" x2="29.3" y2="55.1" stroke="#43596b" stroke-width="2.32" stroke-linecap="round"/><line x1="40.2" y1="182.1" x2="40.2" y2="55.1" stroke="#43596b" stroke-width="2.32" stroke-linecap="round"/><line x1="18.0" y1="205.0" x2="182.0" y2="205.0" stroke="#2c3230" stroke-width="3.54" stroke-linecap="round"/><circle cx="36.1" cy="93.9" r="2.44" fill="#7fa85e" opacity="0.75"/><circle cx="77.9" cy="93.9" r="2.44" fill="#7fa85e" opacity="0.75"/><circle cx="128.5" cy="93.4" r="2.44" fill="#4f7a3f" opacity="0.75"/><circle cx="159.2" cy="93.4" r="2.44" fill="#4f7a3f" opacity="0.75"/><circle cx="96.1" cy="78.5" r="2.44" fill="#6e8fa0" opacity="0.75"/><circle cx="135.3" cy="78.5" r="2.44" fill="#6e8fa0" opacity="0.75"/><circle cx="63.3" cy="40.4" r="2.44" fill="#90ab8e" opacity="0.75"/><circle cx="94.8" cy="40.4" r="2.44" fill="#90ab8e" opacity="0.75"/><circle cx="7.3" cy="55.1" r="2.44" fill="#43596b" opacity="0.75"/><circle cx="51.2" cy="55.1" r="2.44" fill="#43596b" opacity="0.75"/></g></g></svg>